<svg id="Layer_1" data-name="Layer 1" xmlns="http://www.w3.org/2000/svg" viewBox="0 0 79.13 103.43"><defs><style>.cls-1,.cls-2{fill:none;stroke:#fff;stroke-miterlimit:10;}.cls-1{stroke-width:2px;}</style></defs><polygon class="cls-1" points="38.55 2.43 26.57 29.65 1.55 86.43 77.56 86.43 50.88 28.96 38.55 2.43"/><path class="cls-1" d="M27.55,29.43Z" transform="translate(0.01 0)"/><path class="cls-1" d="M14.05,58.7,64,58.14Z" transform="translate(0.01 0)"/><path class="cls-1" d="M38.73,29.36,39,86.21Z" transform="translate(0.01 0)"/><polygon class="cls-1" points="1.55 102.43 8.82 86.49 69.78 86.49 76.56 102.43 1.55 102.43"/><path class="cls-2" d="M35.05,102.08" transform="translate(0.01 0)"/><polyline class="cls-1" points="43.13 102.22 39.02 86.2 34.55 102.43"/><path class="cls-2" d="M27.55,29.43Z" transform="translate(0.01 0)"/><path class="cls-1" d="M27.05,28.93Z" transform="translate(0.01 0)"/><path class="cls-1" d="M26.56,29.65l24.63,0Z" transform="translate(0.01 0)"/></svg>